<?xml version="1.0" encoding="utf-8"?>
<!-- Generator: Adobe Illustrator 21.0.0, SVG Export Plug-In . SVG Version: 6.00 Build 0)  -->
<svg version="1.1" id="Layer_1" xmlns="http://www.w3.org/2000/svg" xmlns:xlink="http://www.w3.org/1999/xlink" x="0px" y="0px"
	 viewBox="0 0 337 328" style="enable-background:new 0 0 337 328;" xml:space="preserve">
<style type="text/css">
	.st0{opacity:0.85;}
	.st1{fill:#CC7261;}
	.st2{fill:#FFFFFF;}
</style>
<g class="st0">
	<circle class="st1" cx="168" cy="166" r="150.3"/>
</g>
<g>
	<path class="st2" d="M292.4,171H39.7c-3.1,0-5.6-2.5-5.6-5.6s2.5-5.6,5.6-5.6h252.7c3.1,0,5.6,2.5,5.6,5.6S295.5,171,292.4,171z"/>
</g>
<g>
	<path class="st2" d="M71.6,182.1c1.6,0,2.7,1.6,3.5,4.8c10.3,26.9,15.6,40.7,15.7,41.4v0.4c0,1.3-0.8,2.1-2.4,2.3h-0.1
		c-1.5,0-2.6-1.5-3.2-4.4l-5.8-15h-15l-7,18.6c-0.7,0.5-1.3,0.8-1.8,0.8H55c-1.6-0.3-2.4-1.1-2.4-2.4v-0.1l4.4-11.8
		c7.6-19.9,11.8-30.9,12.4-33.1C70.2,182.6,70.9,182.1,71.6,182.1z M71.6,191.9l-5.4,14.6h11v-0.1l-5.5-14.5H71.6z"/>
	<path class="st2" d="M98.2,182h0.4c1.6,0.3,2.3,1.1,2.3,2.2V201c3.8-3.6,8-5.4,12.7-5.4c4.5,0,8.7,1.7,12.4,5.2
		c3.5,3.7,5.3,7.9,5.3,12.5c0,6.6-3.1,11.9-9.4,15.7c-2.7,1.4-5.3,2.1-7.9,2.1h-1c-4.8,0-9.2-2.2-13.3-6.7
		c-2.5-3.4-3.8-7.3-3.8-11.9v-28.1C95.8,183.1,96.6,182.3,98.2,182z M100.9,212.9v0.6c0,5.3,2.8,9.2,8.3,11.8c1.5,0.4,2.8,0.7,4,0.7
		h0.8c5.1,0,9-2.8,11.6-8.3c0.4-1.7,0.7-3,0.7-3.9V213c0-5.2-2.8-9.2-8.4-11.8c-1.7-0.4-3-0.6-4-0.6h-0.5c-5.1,0-9,2.7-11.6,8.1
		C101.1,210.3,100.9,211.6,100.9,212.9z"/>
	<path class="st2" d="M154.1,196.2c4.5,0,8.6,1.7,12.2,5.1c3.5,3.6,5.2,7.8,5.2,12.3c0,6.5-3.1,11.7-9.3,15.4c-2.7,1.3-5.3,2-7.8,2
		h-1c-4.7,0-9-2.2-13.1-6.6c-2.5-3.5-3.7-7.1-3.7-10.8c0-5.7,2.5-10.4,7.5-14.2C147.4,197.2,150.7,196.2,154.1,196.2z M141.8,213.2
		v0.6c0,4.7,2.2,8.3,6.7,10.8c1.6,0.8,3.4,1.3,5.2,1.3h0.8c4.8,0,8.5-2.5,11-7.5c0.6-1.6,0.9-3.1,0.9-4.6v-0.6
		c0-3.9-1.8-7.1-5.3-9.8c-2.1-1.4-4.4-2.2-7.1-2.2c-5.3,0-9.1,2.7-11.6,8.2C142,210.8,141.8,212.1,141.8,213.2z"/>
	<path class="st2" d="M180.4,195.9c1.6,0.4,2.4,1.1,2.4,2.2v13.7c0,5.9,1.7,9.8,5,11.8c2.1,1.6,4.5,2.4,7.1,2.4
		c5,0,8.7-2.6,11.3-7.7c0.5-1.7,0.8-3.3,0.8-5v-14.9c0.3-1.7,1.2-2.6,2.6-2.6c1.6,0.4,2.4,1.2,2.4,2.4v30.5c0,1.1-0.8,1.9-2.4,2.2
		h-0.1c-1.6-0.3-2.4-1.1-2.4-2.4v-2.4h-0.1c-3.6,3.2-7.4,4.9-11.5,4.9h-0.9c-5.3,0-9.9-2.6-13.9-7.8c-1.8-2.8-2.7-6.3-2.7-10.4v-14
		C178,196.8,178.9,195.9,180.4,195.9z"/>
	<path class="st2" d="M225.3,183.4h0.5c1.5,0.3,2.3,1,2.3,2v11.3h5.2l1.1-0.1c1.2,0,1.9,0.8,2.4,2.5c0,1.1-0.7,2-2.1,2.5l-1.9-0.1
		H228v18.4c0,3.2,1,5.2,3.1,5.9l2.9,0.2h1.4c1.1,0,1.8,0.8,2.1,2.4v0.1c-0.3,1.6-1.1,2.4-2.4,2.4h-2.6c-4,0-7-2.2-8.9-6.5
		c-0.3-1.1-0.5-2.3-0.5-3.8v-19.2h-2.5l-2,0.1c-1.4-0.5-2.1-1.3-2.1-2.5c0.3-1.6,1-2.4,2.3-2.4v-0.1l1.3,0.1h3.1v-10.5
		C223.3,184.4,224,183.4,225.3,183.4z"/>
</g>
<path class="st2" d="M242.7,171h-36.9c-8.3,0-15.1-6.8-15.1-15.1v-33.4c0-10.5,8.6-19.2,19.2-19.2h25.2c10.5,0,19.2,8.6,19.2,19.2
	v36.9C254.3,165.8,249.1,171,242.7,171z"/>
<circle class="st2" cx="222.5" cy="88.4" r="25.3"/>
</svg>
