<?xml version="1.0" encoding="utf-8"?>
<!-- Generator: Adobe Illustrator 21.0.0, SVG Export Plug-In . SVG Version: 6.00 Build 0)  -->
<svg version="1.1" id="Layer_1" xmlns="http://www.w3.org/2000/svg" xmlns:xlink="http://www.w3.org/1999/xlink" x="0px" y="0px"
	 viewBox="0 0 330.6 336.1" style="enable-background:new 0 0 330.6 336.1;" xml:space="preserve">
<style type="text/css">
	.st0{opacity:0.85;}
	.st1{fill:#BDC580;}
	.st2{fill:#FFFFFF;}
</style>
<g class="st0">
	<circle class="st1" cx="166.5" cy="166.1" r="150.3"/>
</g>
<g>
	<path class="st2" d="M290.9,171.1H38.2c-3.1,0-5.6-2.5-5.6-5.6c0-3.1,2.5-5.6,5.6-5.6h252.7c3.1,0,5.6,2.5,5.6,5.6
		C296.5,168.5,294,171.1,290.9,171.1z"/>
</g>
<g>
	<path class="st2" d="M71,182c4.3,0,8.3,1.3,12,3.9c0.3,0.6,0.4,1,0.4,1.3v0.2c0,1.2-0.8,1.9-2.3,2.1H81l-3.8-2
		c-2.5-0.8-4.6-1.2-6.2-1.2c-5.2,0-9.6,2.4-13.4,7.1c-1.9,3.2-2.8,6.2-2.8,9.2c0,6,2.8,10.8,8.5,14.3c2.5,1.3,5,2,7.5,2h0.3
		c3.2,0,6.4-1,9.7-3h0.7c1.3,0.3,2,0.9,2,2v0.3c0,1.5-2.4,3-7.3,4.5c-1.5,0.4-3.1,0.7-4.8,0.7h-0.5c-6.8,0-12.5-3.2-17.1-9.5
		c-2.2-3.6-3.2-7.4-3.2-11.2c0-7.1,3.3-13,9.8-17.5C63.7,183.1,67.3,182,71,182z"/>
	<path class="st2" d="M103.6,194.1c3.8,0,7.2,1.4,10.3,4.3c2.9,3.1,4.4,6.5,4.4,10.3c0,5.5-2.6,9.8-7.8,12.9
		c-2.2,1.1-4.4,1.7-6.5,1.7H103c-3.9,0-7.6-1.8-11-5.5c-2.1-2.9-3.1-6-3.1-9.1c0-4.8,2.1-8.7,6.3-12
		C97.9,194.9,100.7,194.1,103.6,194.1z M93.2,208.4v0.5c0,3.9,1.9,6.9,5.7,9.1c1.4,0.7,2.8,1.1,4.4,1.1h0.6c4,0,7.1-2.1,9.3-6.3
		c0.5-1.3,0.7-2.6,0.7-3.9v-0.5c0-3.3-1.5-6-4.5-8.2c-1.7-1.2-3.7-1.8-6-1.8c-4.4,0-7.7,2.3-9.7,6.9
		C93.4,206.4,93.2,207.4,93.2,208.4z"/>
	<path class="st2" d="M125.9,193.9c1.4,0.3,2,1,2,1.8v2.4c3.1-2.8,6.5-4.2,10.2-4.2c4,0,7.6,1.7,10.7,5.1c2.3,2.8,3.4,5.8,3.4,8.9
		v13.7c0,0.9-0.7,1.5-2,1.8h-0.1c-1.4-0.2-2-0.9-2-2v-12c0-5.4-2.3-8.9-7-10.6c-1.1-0.3-2.1-0.4-3-0.4h-0.3c-3.9,0-6.9,2-9,6
		c-0.6,1.2-0.8,3.2-0.8,5.9v11.3c0,1.1-0.7,1.7-2,1.9h-0.1c-1.1,0-1.8-0.7-2-2.2v-24.8C123.9,194.7,124.6,193.9,125.9,193.9z"/>
	<path class="st2" d="M163.6,183.4h0.4c1.3,0.3,1.9,0.8,1.9,1.7v9.5h4.3l0.9-0.1c1,0,1.6,0.7,2,2.1c0,1-0.6,1.7-1.8,2.1l-1.6-0.1
		h-3.9V214c0,2.7,0.9,4.4,2.6,5l2.4,0.2h1.2c0.9,0,1.5,0.7,1.8,2v0.1c-0.2,1.3-0.9,2-2,2h-2.2c-3.4,0-5.8-1.8-7.5-5.5
		c-0.3-0.9-0.4-2-0.4-3.2v-16.1h-2.1l-1.7,0.1c-1.2-0.4-1.8-1.1-1.8-2.1c0.2-1.3,0.9-2,1.9-2v-0.1l1.1,0.1h2.6v-8.9
		C162,184.1,162.6,183.4,163.6,183.4z"/>
	<path class="st2" d="M192,193.9c5.6,0,10,2.7,13.2,8.2c1,2.2,1.5,4.5,1.5,6.9v12.4c0,1.1-0.7,1.7-2,1.9h-0.1c-0.9,0-1.6-0.5-2-1.6
		v-0.1l0.1-2.7v-0.1c-3.2,3-6.6,4.5-10.2,4.5h-0.8c-5,0-9.1-2.5-12.5-7.5c-1.2-2.4-1.8-4.8-1.8-7.3c0-5.5,2.7-9.8,8-13
		C187.6,194.4,189.9,193.9,192,193.9z M181.5,208.4v0.3c0,4.3,2.1,7.5,6.4,9.7c1.4,0.5,2.6,0.7,3.6,0.7h0.8c3.6,0,6.5-1.8,8.8-5.3
		c0.8-1.7,1.3-3.3,1.3-4.8v-0.4c0-4.1-2-7.3-6.1-9.5c-1.4-0.6-2.9-0.9-4.4-0.9h-0.1c-4.3,0-7.6,2.3-9.8,6.8
		C181.7,206.3,181.5,207.4,181.5,208.4z"/>
	<path class="st2" d="M226.3,193.8c3.8,0,7.2,1.4,10.3,4.3c0.2,0.4,0.3,0.7,0.3,1.1v0.1c-0.3,1.4-0.9,2-2,2h-0.1
		c-0.5,0-1.7-0.7-3.4-2c-1.6-0.8-3.2-1.2-4.7-1.2H226c-4.2,0-7.3,2.2-9.5,6.6c-0.5,1.5-0.7,2.8-0.7,4c0,4.3,2.2,7.5,6.6,9.7
		c1.3,0.5,2.7,0.7,4.2,0.7c2.5,0,4.9-1,7.3-3l0.9-0.2h0.3c1.1,0,1.7,0.7,1.9,2v0.1c0,1.5-2.3,3.1-6.9,4.9c-1.6,0.3-2.7,0.4-3.4,0.4
		h-0.9c-4,0-7.7-1.9-11.1-5.6c-2.1-2.9-3.1-6-3.1-9.1c0-4.8,2.1-8.8,6.4-12.1C220.6,194.7,223.4,193.8,226.3,193.8z"/>
	<path class="st2" d="M248.1,183.4h0.4c1.3,0.3,1.9,0.8,1.9,1.7v9.5h4.3l0.9-0.1c1,0,1.6,0.7,2,2.1c0,1-0.6,1.7-1.8,2.1l-1.6-0.1
		h-3.9V214c0,2.7,0.9,4.4,2.6,5l2.4,0.2h1.2c0.9,0,1.5,0.7,1.8,2v0.1c-0.2,1.3-0.9,2-2,2h-2.2c-3.4,0-5.8-1.8-7.5-5.5
		c-0.3-0.9-0.4-2-0.4-3.2v-16.1h-2.1l-1.7,0.1c-1.2-0.4-1.8-1.1-1.8-2.1c0.2-1.3,0.9-2,1.9-2v-0.1l1.1,0.1h2.6v-8.9
		C246.5,184.1,247.1,183.4,248.1,183.4z"/>
</g>
<g>
	<path class="st2" d="M222.4,138.1c-0.4,0.3-0.9,0.4-1.4,0.4s-0.9-0.1-1.4-0.4l-45-29.1c-0.9-0.6-2.2-0.1-2.4,1
		c-0.1,0.6-0.2,1.3-0.2,2v49.2c0,3.7,3.1,6.8,6.8,6.8h85c3.4,0,6.3-2.8,6.3-6.3V112c0-0.7-0.1-1.3-0.2-2c-0.2-1.1-1.5-1.7-2.4-1
		L222.4,138.1z"/>
	<path class="st2" d="M221.9,132.4l42.7-27.6c1-0.7,1-2.1,0-2.8c-1.9-1.3-4.2-2-6.6-2h-74c-2.4,0-4.7,0.7-6.6,2c-1,0.7-1,2.1,0,2.8
		l42.7,27.6C220.7,132.7,221.4,132.7,221.9,132.4z"/>
</g>
</svg>
