<?xml version="1.0" encoding="utf-8"?>
<!-- Generator: Adobe Illustrator 20.0.0, SVG Export Plug-In . SVG Version: 6.00 Build 0)  -->
<svg version="1.1" id="Layer_1" xmlns="http://www.w3.org/2000/svg" xmlns:xlink="http://www.w3.org/1999/xlink" x="0px" y="0px"
	 viewBox="0 0 492 605" style="enable-background:new 0 0 492 605;" xml:space="preserve">
<style type="text/css">
	.st0{fill:#B4DCBC;}
	.st1{opacity:0.85;fill:#CC7261;enable-background:new    ;}
	.st2{fill:#FFFFFF;}
	.st3{enable-background:new    ;}
	.st4{fill:#3B3B3B;}
</style>
<g id="Layer_1_1_">
	<path class="st0" d="M243.5,265.1v-215c0-3.5-2.9-6.4-6.4-6.3C115.7,47.2,17.5,143.5,11.2,264.1C4,401.5,118.4,515.9,255.8,508.7
		c122.7-6.4,220.3-108,220.3-232.3c0-43.4-11.9-84-32.5-118.7c-1.8-3-5.8-4-8.7-2.1L253.1,270.4C248.9,273,243.5,270,243.5,265.1z"
		/>
	<path class="st1" d="M453.7,114.4c-40.7-60.6-109.1-101-187-103.1c-3.4-0.1-6.3,2.7-6.3,6.1v215.3c0,4.8,5.3,7.8,9.4,5.2L451.9,123
		C454.8,121.2,455.7,117.3,453.7,114.4z"/>
</g>
<g>
	<g>
		<path class="st2" d="M169.2,430.3c-6.4,0-12.8-1.1-19-3.3c-14.2-5.1-25.6-15.4-32-29c-13.3-28.1-1.3-61.9,26.9-75.2
			c28.1-13.3,61.9-1.3,75.2,26.9l0,0c13.3,28.1,1.3,61.9-26.9,75.2C185.6,428.5,177.4,430.3,169.2,430.3z M169.1,334.4
			c-5.6,0-11.4,1.2-16.8,3.8c-19.6,9.3-28.1,32.9-18.8,52.5c4.5,9.5,12.5,16.7,22.4,20.3c9.9,3.5,20.6,3,30.1-1.5
			c19.6-9.3,28.1-32.9,18.8-52.5C198,342.7,183.9,334.4,169.1,334.4z"/>
	</g>
	<g>
		<path class="st2" d="M212.5,361.8c-3.2,0-6.3-1.8-7.7-4.9c-2-4.3-0.2-9.3,4.1-11.4l46.9-22.2l-26.7-9.6c-4.4-1.6-6.7-6.5-5.2-10.9
			c1.6-4.4,6.5-6.7,10.9-5.2l46.1,16.5c3.2,1.2,5.5,4.2,5.6,7.6c0.2,3.4-1.7,6.7-4.9,8.1l-65.5,31
			C214.9,361.5,213.7,361.8,212.5,361.8z"/>
	</g>
	<g>
		<path class="st2" d="M262.5,374.1c-1,0-1.9-0.2-2.9-0.5c-4.4-1.6-6.7-6.5-5.2-10.9l15.5-43.3c1.6-4.4,6.5-6.7,10.9-5.2
			c4.4,1.6,6.7,6.5,5.2,10.9l-15.5,43.3C269.3,371.9,266,374.1,262.5,374.1z"/>
	</g>
</g>
<g>
	<g>
		<path class="st2" d="M330.6,123.5c-18.6,0-33.8-15.1-33.8-33.8S312,56,330.6,56s33.8,15.1,33.8,33.8S349.2,123.5,330.6,123.5z
			 M330.6,66.2c-13,0-23.6,10.6-23.6,23.6s10.6,23.6,23.6,23.6s23.6-10.6,23.6-23.6S343.6,66.2,330.6,66.2z"/>
	</g>
	<g>
		<path class="st2" d="M330.6,166.8c-2.8,0-5.1-2.3-5.1-5.1v-43.3c0-2.8,2.3-5.1,5.1-5.1s5.1,2.3,5.1,5.1v43.3
			C335.7,164.6,333.4,166.8,330.6,166.8z"/>
	</g>
	<g>
		<path class="st2" d="M346.2,149H315c-2.8,0-5.1-2.3-5.1-5.1s2.3-5.1,5.1-5.1h31.2c2.8,0,5.1,2.3,5.1,5.1S349,149,346.2,149z"/>
	</g>
</g>
<g class="st3">
	<path class="st4" d="M49.5,534.2l0.3,0h3.3l0.2,0c1.7,0,3.1,0.8,4.3,2.4c0.6,0.9,0.9,1.8,0.9,2.9v0.2c0,1.3-0.5,2.4-1.5,3.6
		c2.4,1.3,3.6,3.2,3.6,5.7c0,2.5-1.3,4.4-3.9,5.8c-0.8,0.3-1.6,0.4-2.2,0.4h-4.9c-0.7-0.1-1-0.5-1-1v-18.7
		C48.6,534.6,49,534.2,49.5,534.2L49.5,534.2z M50.6,536.4v6.2h2c1.8,0,2.9-0.6,3.5-1.9c0.1-0.4,0.2-0.7,0.2-1.1v-0.2
		c0-1.4-0.8-2.4-2.5-2.9l-1.1-0.1H50.6z M50.6,544.7v8.2h2.9c2.1,0,3.5-0.6,4.2-1.8c0.5-0.7,0.7-1.4,0.7-2.3v-0.1c0-2-1.1-3.3-3.2-4
		l-1.5-0.1H50.6z"/>
	<path class="st4" d="M70.2,540.2c1.9,0,3.6,0.7,5.2,2.2c1.5,1.6,2.2,3.3,2.2,5.2c0,2.8-1.3,5-3.9,6.5c-1.1,0.6-2.2,0.9-3.3,0.9
		h-0.4c-2,0-3.8-0.9-5.6-2.8c-1-1.5-1.6-3-1.6-4.6c0-2.4,1.1-4.4,3.2-6.1C67.3,540.7,68.7,540.2,70.2,540.2z M64.9,547.5v0.3
		c0,2,1,3.5,2.9,4.6c0.7,0.4,1.4,0.5,2.2,0.5h0.3c2,0,3.6-1.1,4.7-3.2c0.3-0.7,0.4-1.3,0.4-1.9v-0.3c0-1.6-0.8-3-2.3-4.2
		c-0.9-0.6-1.9-0.9-3-0.9c-2.2,0-3.9,1.2-4.9,3.5C65,546.5,64.9,547,64.9,547.5z"/>
	<path class="st4" d="M90.2,540.3c0.7,0.1,1,0.4,1,1v0.1c0,0.2-1.7,4.3-5,12.2c-1.6,3.9-2.4,6-2.6,6.2c-0.2,0.1-0.4,0.2-0.7,0.3
		c-0.7-0.1-1-0.4-1-0.9v-0.2c0-0.1,0.8-2,2.3-5.7v0l-4.8-11.8v0c0.1-0.7,0.5-1,1-1c0.6,0,1.1,0.7,1.5,2c2.2,5.2,3.3,8,3.4,8.2h0
		c2.7-6.5,4.1-9.8,4.2-10C89.7,540.4,89.9,540.3,90.2,540.3z"/>
	<path class="st4" d="M99,540.2c2.5,0,4.5,1.1,5.9,3.4l0,0.4v0.1c0,0.6-0.4,0.9-1.1,1c-0.5,0-1-0.4-1.5-1.2c-1-1-2.1-1.5-3.4-1.5
		c-1.7,0-3,0.8-3.9,2.4l0,0.3c0,0.5,0.5,0.8,1.6,0.9c4.1,1,6.4,1.6,6.8,1.7c1,0.7,1.6,1.5,1.6,2.6v0c0,1.5-1.1,2.9-3.3,4.1
		c-0.9,0.4-1.9,0.6-3,0.6c-2.2,0-4-1-5.5-3.1c-0.1-0.2-0.2-0.4-0.2-0.6V551c0-0.5,0.4-0.8,1.2-0.9c0.3,0,0.8,0.5,1.5,1.4
		c1,0.9,2.1,1.3,3.3,1.3c1.5,0,2.8-0.7,3.8-2.2l0.1-0.3v-0.1c0-0.5-0.3-0.7-1-0.8c-4.8-1.1-7.4-1.7-7.7-2c-0.9-0.7-1.3-1.5-1.3-2.5
		c0-1.4,1-2.7,3-3.9C96.8,540.5,97.9,540.2,99,540.2z"/>
	<path class="st4" d="M122,540.1c2.8,0,5,1.4,6.7,4.1c0.5,1.1,0.8,2.3,0.8,3.5v6.3c0,0.5-0.3,0.9-1,1h-0.1c-0.5,0-0.8-0.3-1-0.8
		v-0.1l0.1-1.4v-0.1c-1.6,1.5-3.3,2.3-5.2,2.3h-0.4c-2.5,0-4.6-1.3-6.3-3.8c-0.6-1.2-0.9-2.5-0.9-3.7c0-2.8,1.4-5,4.1-6.6
		C119.8,540.4,120.9,540.1,122,540.1z M116.7,547.5v0.2c0,2.2,1.1,3.8,3.3,4.9c0.7,0.3,1.3,0.4,1.8,0.4h0.4c1.8,0,3.3-0.9,4.5-2.7
		c0.4-0.9,0.6-1.7,0.6-2.4v-0.2c0-2.1-1-3.7-3.1-4.8c-0.7-0.3-1.5-0.5-2.2-0.5H122c-2.2,0-3.8,1.1-4.9,3.4
		C116.8,546.4,116.7,547,116.7,547.5z"/>
	<path class="st4" d="M134,540c0.7,0.2,1,0.5,1,0.9v1.2c1.6-1.4,3.3-2.1,5.1-2.1c1,0,2,0.2,3.1,0.7c0.3,0.3,0.4,0.6,0.4,0.9v0.1
		c-0.1,0.7-0.5,1-1,1h-0.1c-1-0.3-1.8-0.5-2.3-0.5H140c-2.1,0-3.7,1.1-4.7,3.3c-0.2,0.6-0.3,1.3-0.3,2v6.5c0,0.5-0.3,0.9-1,1h-0.1
		c-0.6,0-0.9-0.4-1-1.1v-12.6C133,540.5,133.3,540,134,540z"/>
	<path class="st4" d="M152.8,540.1c2.9,0,5.1,1.4,6.7,4.1c0.5,1.1,0.8,2.2,0.8,3.5v0.3c-0.1,0.7-0.5,1.1-1,1.1h-11.5
		c0.4,1.4,1.3,2.6,2.8,3.3c0.8,0.3,1.6,0.5,2.3,0.5c0.8,0,1.8-0.3,2.9-0.8h0.3c0.6,0.1,1,0.5,1,1v0.2c0,0.9-1.3,1.5-3.9,1.8h-0.4
		c-2.7,0-4.8-1.3-6.4-3.8c-0.6-1.2-1-2.4-1-3.7c0-2.7,1.3-4.9,3.9-6.5C150.5,540.4,151.7,540.1,152.8,540.1z M147.6,546.9h10.5
		c0-0.7-0.4-1.7-1.3-2.9c-1.2-1.1-2.4-1.7-3.5-1.7h-0.6c-1.7,0-3.2,0.9-4.3,2.6C147.9,545.6,147.7,546.3,147.6,546.9z"/>
	<path class="st4" d="M171.5,540.1c0.7,0.2,1,0.5,1,0.9v1.2c1.6-1.4,3.3-2.1,5.1-2.1c2,0,3.9,0.9,5.4,2.6c1.2,1.4,1.7,2.9,1.7,4.5
		v6.9c0,0.5-0.3,0.8-1,0.9h-0.1c-0.7-0.1-1-0.5-1-1v-6.1c0-2.7-1.2-4.5-3.5-5.4c-0.6-0.1-1.1-0.2-1.5-0.2h-0.2c-2,0-3.5,1-4.6,3.1
		c-0.3,0.6-0.4,1.6-0.4,3v5.7c0,0.5-0.3,0.9-1,1h-0.1c-0.6,0-0.9-0.4-1-1.1v-12.5C170.5,540.6,170.8,540.1,171.5,540.1z"/>
	<path class="st4" d="M194.5,540.1c2.9,0,5.1,1.4,6.7,4.1c0.5,1.1,0.8,2.2,0.8,3.5v0.3c-0.1,0.7-0.5,1.1-1,1.1h-11.5
		c0.4,1.4,1.3,2.6,2.8,3.3c0.8,0.3,1.6,0.5,2.3,0.5c0.8,0,1.8-0.3,2.9-0.8h0.3c0.6,0.1,1,0.5,1,1v0.2c0,0.9-1.3,1.5-3.9,1.8h-0.4
		c-2.7,0-4.8-1.3-6.4-3.8c-0.6-1.2-1-2.4-1-3.7c0-2.7,1.3-4.9,3.9-6.5C192.3,540.4,193.4,540.1,194.5,540.1z M189.4,546.9h10.5
		c0-0.7-0.4-1.7-1.3-2.9c-1.2-1.1-2.4-1.7-3.5-1.7h-0.6c-1.7,0-3.2,0.9-4.3,2.6C189.7,545.6,189.5,546.3,189.4,546.9z"/>
	<path class="st4" d="M211.7,540.1c2.8,0,5,1.4,6.7,4.1c0.5,1.1,0.8,2.3,0.8,3.5v6.3c0,0.5-0.3,0.9-1,1H218c-0.5,0-0.8-0.3-1-0.8
		v-0.1l0.1-1.4v-0.1c-1.6,1.5-3.3,2.3-5.2,2.3h-0.4c-2.5,0-4.6-1.3-6.3-3.8c-0.6-1.2-0.9-2.5-0.9-3.7c0-2.8,1.4-5,4.1-6.6
		C209.4,540.4,210.6,540.1,211.7,540.1z M206.3,547.5v0.2c0,2.2,1.1,3.8,3.3,4.9c0.7,0.3,1.3,0.4,1.8,0.4h0.4c1.8,0,3.3-0.9,4.5-2.7
		c0.4-0.9,0.6-1.7,0.6-2.4v-0.2c0-2.1-1-3.7-3.1-4.8c-0.7-0.3-1.5-0.5-2.2-0.5h-0.1c-2.2,0-3.8,1.1-4.9,3.4
		C206.4,546.4,206.3,547,206.3,547.5z"/>
	<path class="st4" d="M223.6,540c0.7,0.2,1,0.5,1,0.9v1.2c1.6-1.4,3.3-2.1,5.1-2.1c1,0,2,0.2,3.1,0.7c0.3,0.3,0.4,0.6,0.4,0.9v0.1
		c-0.1,0.7-0.5,1-1,1h-0.1c-1-0.3-1.8-0.5-2.3-0.5h-0.3c-2.1,0-3.7,1.1-4.7,3.3c-0.2,0.6-0.3,1.3-0.3,2v6.5c0,0.5-0.3,0.9-1,1h-0.1
		c-0.6,0-0.9-0.4-1-1.1v-12.6C222.6,540.5,222.9,540,223.6,540z"/>
	<path class="st4" d="M236.4,534.3h0.2c0.7,0.1,1,0.4,1,0.9v17.7h1.1c0.5,0,0.8,0.3,0.9,1v0c-0.1,0.7-0.5,1-1,1h-2.1
		c-0.6,0-0.9-0.4-1-1.1v-18.5C235.5,534.7,235.8,534.3,236.4,534.3z"/>
	<path class="st4" d="M252.3,540.3c0.7,0.1,1,0.4,1,1v0.1c0,0.2-1.7,4.3-5,12.2c-1.6,3.9-2.4,6-2.6,6.2c-0.2,0.1-0.4,0.2-0.7,0.3
		c-0.7-0.1-1-0.4-1-0.9v-0.2c0-0.1,0.8-2,2.3-5.7v0l-4.8-11.8v0c0.1-0.7,0.5-1,1-1c0.6,0,1.1,0.7,1.5,2c2.2,5.2,3.3,8,3.4,8.2h0
		c2.7-6.5,4.1-9.8,4.2-10C251.8,540.4,252.1,540.3,252.3,540.3z"/>
</g>
<g class="st3">
	<path class="st4" d="M264.8,533.8l0.7,0.1h8.3c0.8,0,1.3,0.5,1.5,1.5c0,0.8-0.5,1.3-1.5,1.6h-7.2v4.6h2.7c2.6,0,4.7,1.3,6.1,4
		c0.5,1.1,0.7,2.1,0.7,2.9c0,2.4-1.1,4.4-3.4,5.9c-1.2,0.6-2.3,1-3.5,1H269c-2.7,0-4.8-1.4-6.3-4.2c-0.4-1.1-0.5-2-0.5-2.7
		c0.3-0.9,0.9-1.4,1.6-1.4c1.1,0,1.6,0.8,1.6,2.3c0.4,1.3,1.1,2.1,1.9,2.5c0.7,0.3,1.3,0.4,1.8,0.4c1.7,0,2.9-0.9,3.6-2.6
		c0.1-0.3,0.2-0.7,0.2-1.2c0-1.9-1-3.1-3-3.7l-1.2-0.1h-3.8c-0.7,0-1.2-0.4-1.5-1.3v-8.2C263.4,534.6,263.9,534.1,264.8,533.8z"/>
	<path class="st4" d="M288.4,534.4h0.2c0.9,0.2,1.4,0.6,1.4,1.3v4.4h1.7l0.5-0.1c0.7,0,1.2,0.5,1.5,1.5c0,0.7-0.4,1.2-1.3,1.6
		l-0.9-0.1H290v7.4c0,1.2,0.3,1.9,1,2.1l1.1,0.1h0.6c0.7,0,1.2,0.5,1.3,1.4v0.1c-0.2,0.9-0.6,1.4-1.5,1.4h-1.1c-1.9,0-3.3-1-4.2-3.1
		c-0.2-0.5-0.2-1.1-0.2-1.8v-7.7h-0.6l-0.9,0.1c-0.9-0.3-1.3-0.8-1.3-1.5c0.2-0.9,0.5-1.4,1-1.4v-0.1l1,0.1h0.9V536
		C287.2,534.9,287.6,534.4,288.4,534.4z"/>
	<path class="st4" d="M297.4,535.9c1,0.2,1.4,0.7,1.4,1.4v0.3c0,0.8-0.5,1.2-1.6,1.4c-0.7,0-1.2-0.5-1.5-1.5
		C296,536.4,296.5,535.9,297.4,535.9z M297.4,539.6c1,0.2,1.4,0.7,1.4,1.4V554c0,0.8-0.5,1.3-1.5,1.4h-0.1c-0.8,0-1.3-0.5-1.5-1.5
		v-12.7C295.9,540.2,296.4,539.6,297.4,539.6z"/>
	<path class="st4" d="M303,540c0.7,0,1.2,0.3,1.4,1c0.8-0.6,1.9-1,3.4-1c2,0,3.6,0.7,4.8,2.2c0.4-0.8,1.6-1.5,3.5-2l1.3-0.2
		c2.4,0,4.3,1.1,5.7,3.4c0.5,1,0.7,1.9,0.7,2.8v8c0,0.7-0.5,1.2-1.4,1.3h-0.1c-0.9-0.2-1.4-0.6-1.4-1.5v-7.7c0-1.6-0.8-2.6-2.4-3.2
		l-0.7-0.1h-0.5c-1.3,0-2.3,0.8-3,2.3c-0.1,0.3-0.1,0.6-0.1,0.8v8c-0.2,1-0.7,1.5-1.4,1.5h-0.1c-0.9-0.2-1.4-0.6-1.4-1.4v-6.6
		c0-1.7-0.2-2.7-0.6-3.1c-0.7-0.9-1.6-1.4-2.7-1.4h-0.2c-1.5,0-2.5,0.8-3.2,2.4c-0.1,0.4-0.1,0.9-0.1,1.6v7.1c0,0.8-0.5,1.2-1.4,1.4
		h-0.1c-0.8,0-1.3-0.5-1.5-1.5v-12.4C301.6,540.5,302.1,540,303,540z"/>
	<path class="st4" d="M333.5,539.7c3,0,5.4,1.4,7.1,4.3c0.6,1.1,0.9,2.4,0.9,3.7v0.3c-0.2,1-0.7,1.5-1.5,1.5h-10.9
		c0.3,1,1.1,1.8,2.4,2.5c0.8,0.3,1.5,0.4,2.2,0.4c0.8,0,1.7-0.3,2.8-0.8h0.5c0.9,0.2,1.4,0.6,1.4,1.4v0.2c0,1.1-1.4,1.9-4.3,2.3
		h-0.4c-2.8,0-5.1-1.3-6.8-4c-0.7-1.3-1-2.6-1-3.9c0-2.9,1.4-5.2,4.1-6.9C331.1,540,332.3,539.7,333.5,539.7z M328.8,546.5h9.5
		c0-0.4-0.4-1.1-1.2-2.2c-1.1-1-2.2-1.5-3.2-1.5h-0.6c-1.6,0-2.9,0.8-3.9,2.4C329,545.8,328.8,546.2,328.8,546.5z"/>
	<path class="st4" d="M352.4,550.3c0-0.2-0.2-0.3-0.6-0.3c-4.9-1.1-7.5-1.8-7.9-2.1c-1-0.8-1.5-1.7-1.5-2.8c0-1.5,1.1-2.9,3.2-4.3
		c1.2-0.6,2.3-0.9,3.4-0.9c2.7,0,4.8,1.2,6.3,3.7l0.1,0.5v0.1c0,0.8-0.5,1.3-1.5,1.5c-0.7,0-1.3-0.5-1.8-1.4c-0.9-0.9-1.9-1.3-3-1.3
		c-1.5,0-2.7,0.7-3.5,2.1l0,0.1c0,0.2,0.4,0.3,1.3,0.4c4.2,1,6.5,1.6,6.9,1.8c1.2,0.8,1.8,1.8,1.8,3v0c0,1.7-1.2,3.2-3.5,4.5
		c-1,0.5-2.1,0.7-3.2,0.7c-2.3,0-4.3-1.1-5.9-3.3c-0.2-0.3-0.3-0.6-0.3-0.8V551c0-0.8,0.5-1.2,1.6-1.4c0.5,0,1.1,0.5,1.8,1.5
		c0.9,0.8,1.9,1.2,3,1.2c1.4,0,2.5-0.6,3.4-1.9L352.4,550.3z"/>
</g>
<g class="st3">
	<path class="st4" d="M365.5,540.4c0.7,0.2,1,0.5,1,0.9v0.5c1.2-1,2.5-1.4,3.9-1.4c1.8,0,3.5,0.9,4.9,2.6c0.6-1.1,1.7-1.9,3.5-2.4
		l1.2-0.2c2.2,0,4,1.1,5.3,3.2c0.4,0.9,0.6,1.7,0.6,2.6v8c0,0.5-0.3,0.8-1,0.9h0c-0.7-0.1-1-0.5-1-1v-7.7c0-1.8-0.9-3-2.8-3.6
		l-0.7-0.1h-0.5c-1.5,0-2.6,0.9-3.4,2.6c-0.1,0.4-0.2,0.7-0.2,1v7.9c-0.1,0.7-0.5,1.1-1,1.1h-0.1c-0.7-0.1-1-0.4-1-1v-6.6
		c0-1.8-0.2-3-0.7-3.4c-0.8-1-1.8-1.5-3-1.5h-0.2c-1.7,0-2.9,0.9-3.6,2.7c-0.1,0.4-0.2,1-0.2,1.7v7.1c0,0.5-0.3,0.8-1,1h0
		c-0.5,0-0.9-0.4-1-1.1v-12.4C364.5,540.8,364.9,540.4,365.5,540.4z"/>
	<path class="st4" d="M395.8,540.2c1.9,0,3.6,0.7,5.2,2.2c1.5,1.6,2.2,3.3,2.2,5.2c0,2.8-1.3,5-3.9,6.5c-1.1,0.6-2.2,0.9-3.3,0.9
		h-0.4c-2,0-3.8-0.9-5.6-2.8c-1-1.5-1.6-3-1.6-4.6c0-2.4,1.1-4.4,3.2-6.1C393,540.7,394.4,540.2,395.8,540.2z M390.6,547.5v0.3
		c0,2,1,3.5,2.9,4.6c0.7,0.4,1.4,0.5,2.2,0.5h0.3c2,0,3.6-1.1,4.7-3.2c0.3-0.7,0.4-1.3,0.4-1.9v-0.3c0-1.6-0.8-3-2.3-4.2
		c-0.9-0.6-1.9-0.9-3-0.9c-2.2,0-3.9,1.2-4.9,3.5C390.7,546.5,390.6,547,390.6,547.5z"/>
	<path class="st4" d="M407.4,540c0.7,0.2,1,0.5,1,0.9v1.2c1.6-1.4,3.3-2.1,5.1-2.1c1,0,2,0.2,3.1,0.7c0.3,0.3,0.4,0.6,0.4,0.9v0.1
		c-0.1,0.7-0.5,1-1,1h-0.1c-1-0.3-1.8-0.5-2.3-0.5h-0.3c-2.1,0-3.7,1.1-4.7,3.3c-0.2,0.6-0.3,1.3-0.3,2v6.5c0,0.5-0.3,0.9-1,1h-0.1
		c-0.6,0-0.9-0.4-1-1.1v-12.6C406.4,540.5,406.8,540,407.4,540z"/>
	<path class="st4" d="M426.2,540.1c2.9,0,5.1,1.4,6.7,4.1c0.5,1.1,0.8,2.2,0.8,3.5v0.3c-0.1,0.7-0.5,1.1-1,1.1h-11.5
		c0.4,1.4,1.3,2.6,2.8,3.3c0.8,0.3,1.6,0.5,2.3,0.5c0.8,0,1.8-0.3,2.9-0.8h0.3c0.6,0.1,1,0.5,1,1v0.2c0,0.9-1.3,1.5-3.9,1.8h-0.4
		c-2.7,0-4.8-1.3-6.4-3.8c-0.7-1.2-1-2.4-1-3.7c0-2.7,1.3-4.9,3.9-6.5C424,540.4,425.1,540.1,426.2,540.1z M421.1,546.9h10.5
		c0-0.7-0.4-1.7-1.3-2.9c-1.2-1.1-2.4-1.7-3.5-1.7h-0.6c-1.7,0-3.2,0.9-4.3,2.6C421.4,545.6,421.1,546.3,421.1,546.9z"/>
</g>
<g class="st3">
	<path class="st4" d="M56.5,570.1h0.2c0.7,0.1,1,0.4,1,0.9v17.7h1.1c0.5,0,0.8,0.3,0.9,1v0c-0.1,0.7-0.5,1-1,1h-2.1
		c-0.6,0-0.9-0.4-1-1.1v-18.5C55.6,570.5,55.9,570.1,56.5,570.1z"/>
	<path class="st4" d="M64.1,572.1c0.7,0.2,1,0.5,1,0.9v0.3c0,0.5-0.4,0.8-1.1,0.9c-0.5,0-0.8-0.4-1-1.1
		C63.1,572.5,63.5,572.1,64.1,572.1z M64.1,575.8c0.7,0.2,1,0.5,1,0.9v13.1c0,0.5-0.3,0.9-1,1H64c-0.6,0-0.9-0.4-1-1.1v-12.6
		C63,576.3,63.4,575.8,64.1,575.8z"/>
	<path class="st4" d="M69.8,570H70c0.7,0.1,1,0.4,1,0.9v10.9c5.2-3.4,8.2-5.4,9.1-5.9h0.3c0.6,0,0.9,0.4,1,1.1c0,0.4-0.6,1-1.8,1.6
		c-2.9,1.9-4.3,2.9-4.5,2.9v0l6.2,7.8l0.1,0.3v0c-0.1,0.7-0.5,1-1,1h-0.1c-0.4,0-1.1-0.6-1.9-1.9l-5-6.2h0l-2.3,1.5v5.6
		c0,0.5-0.3,0.9-1,1h-0.1c-0.5,0-0.9-0.3-1-1V571C69,570.3,69.3,570,69.8,570z"/>
	<path class="st4" d="M91,575.9c2.9,0,5.1,1.4,6.7,4.1c0.5,1.1,0.8,2.2,0.8,3.5v0.3c-0.1,0.7-0.5,1.1-1,1.1H86
		c0.4,1.4,1.3,2.6,2.8,3.3c0.8,0.3,1.6,0.5,2.3,0.5c0.8,0,1.8-0.3,2.9-0.8h0.3c0.6,0.1,1,0.5,1,1v0.2c0,0.9-1.3,1.5-3.9,1.8H91
		c-2.7,0-4.8-1.3-6.4-3.8c-0.6-1.2-1-2.4-1-3.7c0-2.7,1.3-4.9,3.9-6.5C88.7,576.2,89.9,575.9,91,575.9z M85.8,582.7h10.5
		c0-0.7-0.4-1.7-1.3-2.9c-1.2-1.1-2.4-1.7-3.5-1.7h-0.6c-1.7,0-3.2,0.9-4.3,2.6C86.2,581.4,85.9,582.1,85.8,582.7z"/>
	<path class="st4" d="M101.9,570.1h0.2c0.7,0.1,1,0.4,1,0.9v17.7h1.1c0.5,0,0.8,0.3,0.9,1v0c-0.1,0.7-0.5,1-1,1h-2.1
		c-0.6,0-0.9-0.4-1-1.1v-18.5C101.1,570.5,101.4,570.1,101.9,570.1z"/>
	<path class="st4" d="M117.9,576.1c0.7,0.1,1,0.4,1,1v0.1c0,0.2-1.7,4.3-5,12.2c-1.6,3.9-2.4,6-2.6,6.2c-0.2,0.1-0.4,0.2-0.7,0.3
		c-0.7-0.1-1-0.4-1-0.9v-0.2c0-0.1,0.8-2,2.3-5.7v0l-4.8-11.8v0c0.1-0.7,0.5-1,1-1c0.6,0,1.1,0.7,1.5,2c2.2,5.2,3.3,8,3.4,8.2h0
		c2.7-6.5,4.1-9.8,4.2-10C117.4,576.2,117.6,576.1,117.9,576.1z"/>
	<path class="st4" d="M131.5,570.6h0.2c0.6,0.1,1,0.4,1,0.9v4.8h2.2l0.5-0.1c0.5,0,0.8,0.4,1,1.1c0,0.5-0.3,0.8-0.9,1.1l-0.8-0.1h-2
		v7.8c0,1.4,0.4,2.2,1.3,2.5l1.2,0.1h0.6c0.5,0,0.8,0.3,0.9,1v0c-0.1,0.7-0.5,1-1,1h-1.1c-1.7,0-3-0.9-3.8-2.8
		c-0.1-0.5-0.2-1-0.2-1.6v-8.2h-1.1l-0.9,0.1c-0.6-0.2-0.9-0.6-0.9-1.1c0.1-0.7,0.4-1,1-1v-0.1l0.5,0.1h1.3v-4.5
		C130.7,571,131,570.6,131.5,570.6z"/>
	<path class="st4" d="M145.8,576c1.9,0,3.6,0.7,5.2,2.2c1.5,1.6,2.2,3.3,2.2,5.2c0,2.8-1.3,5-3.9,6.5c-1.1,0.6-2.2,0.9-3.3,0.9h-0.4
		c-2,0-3.8-0.9-5.6-2.8c-1-1.5-1.6-3-1.6-4.6c0-2.4,1.1-4.4,3.2-6.1C143,576.5,144.4,576,145.8,576z M140.6,583.3v0.3
		c0,2,1,3.5,2.9,4.6c0.7,0.4,1.4,0.5,2.2,0.5h0.3c2,0,3.6-1.1,4.7-3.2c0.3-0.7,0.4-1.3,0.4-1.9v-0.3c0-1.6-0.8-3-2.3-4.2
		c-0.9-0.6-1.9-0.9-3-0.9c-2.2,0-3.9,1.2-4.9,3.5C140.7,582.3,140.6,582.8,140.6,583.3z"/>
	<path class="st4" d="M164.3,570h0.2c0.7,0.1,1,0.5,1,0.9v7.1c1.6-1.5,3.4-2.3,5.4-2.3c1.9,0,3.7,0.7,5.3,2.2
		c1.5,1.6,2.3,3.4,2.3,5.3c0,2.8-1.3,5-4,6.7c-1.2,0.6-2.3,0.9-3.3,0.9h-0.4c-2,0-3.9-1-5.7-2.9c-1.1-1.4-1.6-3.1-1.6-5.1v-12
		C163.3,570.5,163.7,570.1,164.3,570z M165.5,583.1v0.3c0,2.2,1.2,3.9,3.5,5c0.6,0.2,1.2,0.3,1.7,0.3h0.3c2.2,0,3.8-1.2,4.9-3.5
		c0.2-0.7,0.3-1.3,0.3-1.6v-0.3c0-2.2-1.2-3.9-3.6-5c-0.7-0.2-1.3-0.3-1.7-0.3h-0.2c-2.2,0-3.8,1.2-4.9,3.5
		C165.6,582,165.5,582.6,165.5,583.1z"/>
	<path class="st4" d="M188.1,575.9c2.9,0,5.1,1.4,6.7,4.1c0.5,1.1,0.8,2.2,0.8,3.5v0.3c-0.1,0.7-0.5,1.1-1,1.1h-11.5
		c0.4,1.4,1.3,2.6,2.8,3.3c0.8,0.3,1.6,0.5,2.3,0.5c0.8,0,1.8-0.3,2.9-0.8h0.3c0.6,0.1,1,0.5,1,1v0.2c0,0.9-1.3,1.5-3.9,1.8h-0.4
		c-2.7,0-4.8-1.3-6.4-3.8c-0.6-1.2-1-2.4-1-3.7c0-2.7,1.3-4.9,3.9-6.5C185.8,576.2,187,575.9,188.1,575.9z M182.9,582.7h10.5
		c0-0.7-0.4-1.7-1.3-2.9c-1.2-1.1-2.4-1.7-3.5-1.7h-0.6c-1.7,0-3.2,0.9-4.3,2.6C183.2,581.4,183,582.1,182.9,582.7z"/>
	<path class="st4" d="M212.6,575.9c2.8,0,5,1.4,6.7,4.1c0.5,1.1,0.8,2.3,0.8,3.5v6.3c0,0.5-0.3,0.9-1,1h-0.1c-0.5,0-0.8-0.3-1-0.8
		V590l0.1-1.4v-0.1c-1.6,1.5-3.3,2.3-5.2,2.3h-0.4c-2.5,0-4.6-1.3-6.3-3.8c-0.6-1.2-0.9-2.5-0.9-3.7c0-2.8,1.4-5,4.1-6.6
		C210.4,576.2,211.5,575.9,212.6,575.9z M207.2,583.3v0.2c0,2.2,1.1,3.8,3.3,4.9c0.7,0.3,1.3,0.4,1.8,0.4h0.4c1.8,0,3.3-0.9,4.5-2.7
		c0.4-0.9,0.6-1.7,0.6-2.4v-0.2c0-2.1-1-3.7-3.1-4.8c-0.7-0.3-1.5-0.5-2.2-0.5h-0.1c-2.2,0-3.8,1.1-4.9,3.4
		C207.4,582.2,207.2,582.8,207.2,583.3z"/>
	<path class="st4" d="M224.1,575.9c0.7,0.2,1,0.5,1,0.9v5.8c0,2.5,0.7,4.2,2.1,5c0.9,0.7,1.9,1,3,1c2.1,0,3.7-1.1,4.8-3.3
		c0.2-0.7,0.3-1.4,0.3-2.1V577c0.1-0.7,0.5-1.1,1.1-1.1c0.7,0.2,1,0.5,1,1v13c0,0.5-0.3,0.8-1,0.9h-0.1c-0.7-0.1-1-0.5-1-1v-1h-0.1
		c-1.5,1.4-3.1,2.1-4.9,2.1H230c-2.3,0-4.2-1.1-5.9-3.3c-0.8-1.2-1.1-2.7-1.1-4.4v-5.9C223.1,576.3,223.4,575.9,224.1,575.9z"/>
	<path class="st4" d="M243.2,570.6h0.2c0.6,0.1,1,0.4,1,0.9v4.8h2.2l0.5-0.1c0.5,0,0.8,0.4,1,1.1c0,0.5-0.3,0.8-0.9,1.1l-0.8-0.1h-2
		v7.8c0,1.4,0.4,2.2,1.3,2.5l1.2,0.1h0.6c0.5,0,0.8,0.3,0.9,1v0c-0.1,0.7-0.5,1-1,1h-1.1c-1.7,0-3-0.9-3.8-2.8
		c-0.1-0.5-0.2-1-0.2-1.6v-8.2h-1.1l-0.9,0.1c-0.6-0.2-0.9-0.6-0.9-1.1c0.1-0.7,0.4-1,1-1v-0.1l0.5,0.1h1.3v-4.5
		C242.3,571,242.6,570.6,243.2,570.6z"/>
	<path class="st4" d="M252.1,572.1c0.7,0.2,1,0.5,1,0.9v0.3c0,0.5-0.4,0.8-1.1,0.9c-0.5,0-0.8-0.4-1-1.1
		C251.1,572.5,251.5,572.1,252.1,572.1z M252.1,575.8c0.7,0.2,1,0.5,1,0.9v13.1c0,0.5-0.3,0.9-1,1H252c-0.6,0-0.9-0.4-1-1.1v-12.6
		C251,576.3,251.4,575.8,252.1,575.8z"/>
	<path class="st4" d="M262.2,576c2.5,0,4.5,1.1,5.9,3.4l0,0.4v0.1c0,0.6-0.4,0.9-1.1,1c-0.5,0-1-0.4-1.5-1.2c-1-1-2.1-1.5-3.4-1.5
		c-1.7,0-3,0.8-3.9,2.4l0,0.3c0,0.5,0.5,0.8,1.6,0.9c4.1,1,6.4,1.6,6.8,1.7c1,0.7,1.6,1.5,1.6,2.6v0c0,1.5-1.1,2.9-3.3,4.1
		c-0.9,0.4-1.9,0.6-3,0.6c-2.2,0-4-1-5.5-3.1c-0.1-0.2-0.2-0.4-0.2-0.6v-0.3c0-0.5,0.4-0.8,1.2-0.9c0.3,0,0.8,0.5,1.5,1.4
		c1,0.9,2.1,1.3,3.3,1.3c1.5,0,2.8-0.7,3.8-2.2l0.1-0.3v-0.1c0-0.5-0.3-0.7-1-0.8c-4.8-1.1-7.4-1.7-7.7-2c-0.9-0.7-1.3-1.5-1.3-2.5
		c0-1.4,1-2.7,3-3.9C260.1,576.3,261.2,576,262.2,576z"/>
	<path class="st4" d="M273.8,570.6h0.2c0.6,0.1,1,0.4,1,0.9v4.8h2.2l0.5-0.1c0.5,0,0.8,0.4,1,1.1c0,0.5-0.3,0.8-0.9,1.1l-0.8-0.1h-2
		v7.8c0,1.4,0.4,2.2,1.3,2.5l1.2,0.1h0.6c0.5,0,0.8,0.3,0.9,1v0c-0.1,0.7-0.5,1-1,1h-1.1c-1.7,0-3-0.9-3.8-2.8
		c-0.1-0.5-0.2-1-0.2-1.6v-8.2h-1.1l-0.9,0.1c-0.6-0.2-0.9-0.6-0.9-1.1c0.1-0.7,0.4-1,1-1v-0.1l0.5,0.1h1.3v-4.5
		C272.9,571,273.2,570.6,273.8,570.6z"/>
	<path class="st4" d="M282.6,572.1c0.7,0.2,1,0.5,1,0.9v0.3c0,0.5-0.4,0.8-1.1,0.9c-0.5,0-0.8-0.4-1-1.1
		C281.7,572.5,282.1,572.1,282.6,572.1z M282.6,575.8c0.7,0.2,1,0.5,1,0.9v13.1c0,0.5-0.3,0.9-1,1h-0.1c-0.6,0-0.9-0.4-1-1.1v-12.6
		C281.6,576.3,282,575.8,282.6,575.8z"/>
	<path class="st4" d="M294.3,575.9c1.9,0,3.7,0.7,5.2,2.2c0.1,0.2,0.2,0.4,0.2,0.6v0.1c-0.1,0.7-0.5,1-1,1h-0.1
		c-0.3,0-0.8-0.3-1.7-1c-0.8-0.4-1.6-0.6-2.4-0.6h-0.3c-2.1,0-3.7,1.1-4.8,3.3c-0.3,0.7-0.4,1.4-0.4,2c0,2.2,1.1,3.8,3.3,4.9
		c0.7,0.3,1.4,0.4,2.1,0.4c1.3,0,2.5-0.5,3.7-1.5l0.4-0.1h0.2c0.5,0,0.9,0.3,1,1v0c0,0.7-1.2,1.6-3.5,2.5c-0.8,0.1-1.4,0.2-1.7,0.2
		H294c-2,0-3.9-0.9-5.6-2.8c-1.1-1.5-1.6-3-1.6-4.6c0-2.4,1.1-4.5,3.2-6.1C291.4,576.4,292.8,575.9,294.3,575.9z"/>
	<path class="st4" d="M312.7,570.6h0.2c0.6,0.1,1,0.4,1,0.9v4.8h2.2l0.5-0.1c0.5,0,0.8,0.4,1,1.1c0,0.5-0.3,0.8-0.9,1.1l-0.8-0.1h-2
		v7.8c0,1.4,0.4,2.2,1.3,2.5l1.2,0.1h0.6c0.5,0,0.8,0.3,0.9,1v0c-0.1,0.7-0.5,1-1,1h-1.1c-1.7,0-3-0.9-3.8-2.8
		c-0.1-0.5-0.2-1-0.2-1.6v-8.2h-1.1l-0.9,0.1c-0.6-0.2-0.9-0.6-0.9-1.1c0.1-0.7,0.4-1,1-1v-0.1l0.5,0.1h1.3v-4.5
		C311.9,571,312.2,570.6,312.7,570.6z"/>
	<path class="st4" d="M321,570h0.2c0.7,0.1,1,0.4,1,0.9v6.7c1.4-1.2,2.9-1.8,4.5-1.8c2.4,0,4.4,1.2,5.9,3.5c0.6,1,0.8,2,0.8,2.9v7.7
		c0,0.5-0.3,0.9-1,1h0c-0.5,0-0.9-0.3-1-1v-7.4c0-2-1-3.4-3.1-4.3c-0.5-0.1-1-0.2-1.5-0.2c-2,0-3.5,1.1-4.3,3.2
		c-0.1,0.5-0.2,1.2-0.2,2.3v6.3c0,0.5-0.3,0.9-1,1h0c-0.5,0-0.9-0.3-1-1v-18.8C320.2,570.4,320.6,570,321,570z"/>
	<path class="st4" d="M343.5,575.9c2.8,0,5,1.4,6.7,4.1c0.5,1.1,0.8,2.3,0.8,3.5v6.3c0,0.5-0.3,0.9-1,1h-0.1c-0.5,0-0.8-0.3-1-0.8
		V590l0.1-1.4v-0.1c-1.6,1.5-3.3,2.3-5.2,2.3h-0.4c-2.5,0-4.6-1.3-6.3-3.8c-0.6-1.2-0.9-2.5-0.9-3.7c0-2.8,1.4-5,4.1-6.6
		C341.2,576.2,342.4,575.9,343.5,575.9z M338.1,583.3v0.2c0,2.2,1.1,3.8,3.3,4.9c0.7,0.3,1.3,0.4,1.8,0.4h0.4c1.8,0,3.3-0.9,4.5-2.7
		c0.4-0.9,0.6-1.7,0.6-2.4v-0.2c0-2.1-1-3.7-3.1-4.8c-0.7-0.3-1.5-0.5-2.2-0.5h-0.1c-2.2,0-3.8,1.1-4.9,3.4
		C338.2,582.2,338.1,582.8,338.1,583.3z"/>
	<path class="st4" d="M355.1,575.9c0.7,0.2,1,0.5,1,0.9v1.2c1.6-1.4,3.3-2.1,5.2-2.1c2,0,3.9,0.9,5.4,2.6c1.2,1.4,1.7,2.9,1.7,4.5
		v6.9c0,0.5-0.3,0.8-1,0.9h-0.1c-0.7-0.1-1-0.5-1-1v-6.1c0-2.7-1.2-4.5-3.5-5.4c-0.6-0.1-1.1-0.2-1.5-0.2h-0.2c-2,0-3.5,1-4.6,3.1
		c-0.3,0.6-0.4,1.6-0.4,3v5.7c0,0.5-0.3,0.9-1,1H355c-0.6,0-0.9-0.4-1-1.1v-12.5C354.1,576.4,354.4,575.9,355.1,575.9z"/>
	<path class="st4" d="M385.6,576c2.2,0,4.1,0.9,5.7,2.8c1.1,1.5,1.7,3,1.7,4.3l-0.1,1.8v6.5c0,1.2-0.9,2.6-2.8,4
		c-1.4,0.9-3,1.4-4.5,1.4c-2.7,0-4.9-1.2-6.7-3.6c-0.3-0.5-0.5-0.9-0.5-1.1V592c0-0.5,0.3-0.8,1-0.9h0.2c0.5,0,0.9,0.5,1.2,1.4
		c1.3,1.6,2.9,2.4,4.8,2.4c2.3,0,4-1,5.2-3.1l0.1-0.7v-2.4c-1.6,1.5-3.3,2.2-5.1,2.2h-0.4c-2,0-3.8-0.9-5.6-2.8
		c-1-1.5-1.6-3-1.6-4.6c0-2.4,1.1-4.4,3.2-6.1C382.8,576.4,384.2,576,385.6,576z M380.3,583.2v0.3c0,2.2,1.2,3.8,3.5,4.9
		c0.6,0.2,1.2,0.3,1.7,0.3h0.3c2.2,0,3.8-1.2,4.9-3.5c0.2-0.7,0.3-1.2,0.3-1.6v-0.3c0-2.2-1.2-3.8-3.5-4.9c-0.7-0.2-1.3-0.3-1.7-0.3
		h-0.2c-2.2,0-3.8,1.1-4.9,3.4C380.4,582.1,380.3,582.7,380.3,583.2z"/>
	<path class="st4" d="M397.8,572.1c0.7,0.2,1,0.5,1,0.9v0.3c0,0.5-0.4,0.8-1.1,0.9c-0.5,0-0.8-0.4-1-1.1
		C396.8,572.5,397.2,572.1,397.8,572.1z M397.8,575.8c0.7,0.2,1,0.5,1,0.9v13.1c0,0.5-0.3,0.9-1,1h-0.1c-0.6,0-0.9-0.4-1-1.1v-12.6
		C396.8,576.3,397.2,575.8,397.8,575.8z"/>
	<path class="st4" d="M404,575.8c0.7,0.2,1,0.5,1,0.9v1.2c1.6-1.4,3.3-2.1,5.1-2.1c1,0,2,0.2,3.1,0.7c0.3,0.3,0.4,0.6,0.4,0.9v0.1
		c-0.1,0.7-0.5,1-1,1h-0.1c-1-0.3-1.8-0.5-2.3-0.5h-0.3c-2.1,0-3.7,1.1-4.7,3.3c-0.2,0.6-0.3,1.3-0.3,2v6.5c0,0.5-0.3,0.9-1,1H404
		c-0.6,0-0.9-0.4-1-1.1v-12.6C403,576.3,403.4,575.8,404,575.8z"/>
	<path class="st4" d="M416.8,570.1h0.2c0.7,0.1,1,0.4,1,0.9v17.7h1.1c0.5,0,0.8,0.3,0.9,1v0c-0.1,0.7-0.5,1-1,1h-2.1
		c-0.6,0-0.9-0.4-1-1.1v-18.5C416,570.5,416.3,570.1,416.8,570.1z"/>
	<path class="st4" d="M428.3,576c2.5,0,4.5,1.1,5.9,3.4l0,0.4v0.1c0,0.6-0.4,0.9-1.1,1c-0.5,0-1-0.4-1.5-1.2c-1-1-2.1-1.5-3.4-1.5
		c-1.7,0-3,0.8-3.9,2.4l0,0.3c0,0.5,0.5,0.8,1.6,0.9c4.1,1,6.4,1.6,6.8,1.7c1,0.7,1.6,1.5,1.6,2.6v0c0,1.5-1.1,2.9-3.3,4.1
		c-0.9,0.4-1.9,0.6-3,0.6c-2.2,0-4-1-5.5-3.1c-0.1-0.2-0.2-0.4-0.2-0.6v-0.3c0-0.5,0.4-0.8,1.2-0.9c0.3,0,0.8,0.5,1.5,1.4
		c1,0.9,2.1,1.3,3.3,1.3c1.5,0,2.8-0.7,3.8-2.2l0.1-0.3v-0.1c0-0.5-0.3-0.7-1-0.8c-4.8-1.1-7.4-1.7-7.7-2c-0.9-0.7-1.3-1.5-1.3-2.5
		c0-1.4,1-2.7,3-3.9C426.2,576.3,427.2,576,428.3,576z"/>
</g>
</svg>
