<?xml version="1.0" encoding="utf-8"?>
<!-- Generator: Adobe Illustrator 20.0.0, SVG Export Plug-In . SVG Version: 6.00 Build 0)  -->
<svg version="1.1" xmlns="http://www.w3.org/2000/svg" xmlns:xlink="http://www.w3.org/1999/xlink" x="0px" y="0px"
	 viewBox="0 0 492 605" style="enable-background:new 0 0 492 605;" xml:space="preserve">
<style type="text/css">
	.st0{fill:#B4DCBC;}
	.st1{opacity:0.85;fill:#CC7261;}
	.st2{fill:#FFFFFF;}
	.st3{fill:#3B3B3B;}
	.st4{font-family:'Comfortaa';}
	.st5{font-size:29.7914px;}
	.st6{font-family:'Comfortaa-Bold';}
</style>
<g id="Layer_1">
	<path class="st0" d="M243.5,265.1V50.1c0-3.5-2.9-6.4-6.4-6.3C115.7,47.2,17.5,143.5,11.2,264.1C4,401.5,118.4,515.9,255.8,508.7
		c122.7-6.4,220.3-108,220.3-232.3c0-43.4-11.9-84-32.5-118.7c-1.8-3-5.8-4-8.7-2.1L253.1,270.4C248.9,273,243.5,270,243.5,265.1z"
		/>
	<path class="st1" d="M453.7,114.4c-40.7-60.6-109.1-101-187-103.1c-3.4-0.1-6.3,2.7-6.3,6.1v215.3c0,4.8,5.3,7.8,9.4,5.2L451.9,123
		C454.8,121.2,455.7,117.3,453.7,114.4z"/>
</g>
<g id="Layer_2">
	<g>
		<g>
			<path class="st2" d="M169.2,430.3c-6.4,0-12.8-1.1-19-3.3c-14.2-5.1-25.6-15.4-32-29c-13.3-28.1-1.3-61.9,26.9-75.2
				c28.1-13.3,61.9-1.3,75.2,26.9h0c13.3,28.1,1.3,61.9-26.9,75.2C185.6,428.5,177.4,430.3,169.2,430.3z M169.1,334.4
				c-5.6,0-11.4,1.2-16.8,3.8c-19.6,9.3-28.1,32.9-18.8,52.5c4.5,9.5,12.5,16.7,22.4,20.3c9.9,3.5,20.6,3,30.1-1.5
				c19.6-9.3,28.1-32.9,18.8-52.5C198,342.7,183.9,334.4,169.1,334.4z"/>
		</g>
		<g>
			<path class="st2" d="M212.5,361.8c-3.2,0-6.3-1.8-7.7-4.9c-2-4.3-0.2-9.3,4.1-11.4l46.9-22.2l-26.7-9.6
				c-4.4-1.6-6.7-6.5-5.2-10.9c1.6-4.4,6.5-6.7,10.9-5.2l46.1,16.5c3.2,1.2,5.5,4.2,5.6,7.6c0.2,3.4-1.7,6.7-4.9,8.1l-65.5,31
				C214.9,361.5,213.7,361.8,212.5,361.8z"/>
		</g>
		<g>
			<path class="st2" d="M262.5,374.1c-1,0-1.9-0.2-2.9-0.5c-4.4-1.6-6.7-6.5-5.2-10.9l15.5-43.3c1.6-4.4,6.5-6.7,10.9-5.2
				c4.4,1.6,6.7,6.5,5.2,10.9l-15.5,43.3C269.3,371.9,266,374.1,262.5,374.1z"/>
		</g>
	</g>
	<g>
		<g>
			<path class="st2" d="M330.6,123.5c-18.6,0-33.8-15.1-33.8-33.8S312,56,330.6,56s33.8,15.1,33.8,33.8S349.2,123.5,330.6,123.5z
				 M330.6,66.2c-13,0-23.6,10.6-23.6,23.6s10.6,23.6,23.6,23.6s23.6-10.6,23.6-23.6S343.6,66.2,330.6,66.2z"/>
		</g>
		<g>
			<path class="st2" d="M330.6,166.8c-2.8,0-5.1-2.3-5.1-5.1v-43.3c0-2.8,2.3-5.1,5.1-5.1s5.1,2.3,5.1,5.1v43.3
				C335.7,164.6,333.4,166.8,330.6,166.8z"/>
		</g>
		<g>
			<path class="st2" d="M346.2,149H315c-2.8,0-5.1-2.3-5.1-5.1s2.3-5.1,5.1-5.1h31.2c2.8,0,5.1,2.3,5.1,5.1S349,149,346.2,149z"/>
		</g>
	</g>
	<text transform="matrix(1 0 0 1 47.6973 555.0293)"><tspan x="0" y="0" class="st3 st4 st5">Boys are nearly </tspan><tspan x="214.4" y="0" class="st3 st6 st5">5 times </tspan><tspan x="315.8" y="0" class="st3 st4 st5">more </tspan><tspan x="6.9" y="35.8" class="st3 st4 st5">likely to be autistic than girls</tspan></text>
</g>
</svg>
