<?xml version="1.0" encoding="utf-8"?>
<!-- Generator: Adobe Illustrator 21.0.0, SVG Export Plug-In . SVG Version: 6.00 Build 0)  -->
<svg version="1.1" id="Layer_1" xmlns="http://www.w3.org/2000/svg" xmlns:xlink="http://www.w3.org/1999/xlink" x="0px" y="0px"
	 viewBox="0 0 325 325" style="enable-background:new 0 0 325 325;" xml:space="preserve">
<style type="text/css">
	.st0{fill:#B4DCBC;}
	.st1{fill:#FFFFFF;}
</style>
<g>
	<circle class="st0" cx="163" cy="165" r="150.3"/>
</g>
<g>
	<g>
		<path class="st1" d="M50,182.4h0.6c1.7,0.4,2.6,1.1,2.6,2.3v22.5h26.8v-22.1c0.3-1.8,1.2-2.7,2.6-2.7h0.4c1.7,0.3,2.6,1.2,2.6,2.6
			v49c0,1.2-0.9,2-2.7,2.4h-0.2c-1.8-0.3-2.7-1.2-2.7-2.7v-21.1H53.1v21.2c0,1.4-0.9,2.3-2.7,2.6h-0.2c-1.5,0-2.4-1-2.7-2.9v-48
			C47.8,183.4,48.6,182.4,50,182.4z"/>
	</g>
	<g>
		<path class="st1" d="M111.1,198c4.9,0,9.4,1.9,13.4,5.6c3.8,4,5.7,8.5,5.7,13.6c0,7.2-3.4,12.8-10.2,16.9
			c-2.9,1.5-5.8,2.2-8.5,2.2h-1.1c-5.1,0-9.9-2.4-14.4-7.3c-2.7-3.8-4.1-7.8-4.1-11.9c0-6.2,2.7-11.4,8.2-15.7
			C103.7,199.2,107.4,198,111.1,198z M97.6,216.8v0.7c0,5.1,2.5,9.1,7.4,11.9c1.8,0.9,3.7,1.4,5.7,1.4h0.8c5.3,0,9.3-2.7,12.2-8.2
			c0.7-1.7,1-3.4,1-5v-0.7c0-4.3-2-7.9-5.9-10.8c-2.3-1.6-4.9-2.4-7.8-2.4c-5.8,0-10,3-12.7,9.1C97.8,214.2,97.6,215.5,97.6,216.8z"
			/>
	</g>
	<g>
		<path class="st1" d="M139.7,198.5c1.8,0.5,2.6,1.2,2.6,2.3v1.4c3.1-2.5,6.4-3.7,10-3.7c4.8,0,9,2.2,12.6,6.6
			c1.5-2.7,4.5-4.8,9.1-6.2l3.2-0.4c5.8,0,10.3,2.8,13.7,8.3c1.1,2.3,1.7,4.5,1.7,6.6V234c0,1.2-0.9,2-2.6,2.3h-0.1
			c-1.8-0.3-2.6-1.2-2.6-2.6v-20c0-4.5-2.4-7.7-7.2-9.4l-1.9-0.3h-1.4c-3.8,0-6.7,2.2-8.7,6.6c-0.3,1-0.4,1.8-0.4,2.5v20.5
			c-0.3,1.8-1.2,2.7-2.6,2.7h-0.2c-1.8-0.3-2.6-1.1-2.6-2.5v-17c0-4.7-0.6-7.7-1.9-8.8c-2-2.7-4.6-4-7.8-4H152c-4.4,0-7.5,2.3-9.3,7
			c-0.3,1.1-0.4,2.6-0.4,4.4v18.4c0,1.4-0.9,2.2-2.6,2.5h-0.1c-1.4,0-2.3-0.9-2.6-2.7v-32C137.2,199.5,138.1,198.5,139.7,198.5z"/>
	</g>
	<g>
		<path class="st1" d="M218.1,197.8c7.4,0,13.2,3.5,17.3,10.6c1.4,2.8,2.1,5.8,2.1,9v0.7c-0.3,1.9-1.2,2.8-2.7,2.8h-29.7
			c1.1,3.7,3.5,6.6,7.2,8.6c2.2,0.8,4.2,1.2,6.1,1.2c2.2,0,4.7-0.7,7.5-2.1h0.8c1.7,0.3,2.5,1.2,2.5,2.6v0.4c0,2.3-3.4,3.9-10.1,4.8
			h-1c-6.9,0-12.5-3.2-16.6-9.7c-1.7-3.1-2.5-6.3-2.5-9.6c0-7.1,3.3-12.7,10-16.9C212.2,198.6,215.2,197.8,218.1,197.8z
			 M204.7,215.4h27.1c0-1.9-1.1-4.4-3.4-7.5c-3.1-2.9-6.1-4.4-9.1-4.4h-1.5c-4.5,0-8.2,2.2-11.1,6.6
			C205.5,211.9,204.9,213.7,204.7,215.4z"/>
	</g>
</g>
<g>
	<path class="st1" d="M287.4,170H34.7c-3.1,0-5.6-2.5-5.6-5.6s2.5-5.6,5.6-5.6h252.7c3.1,0,5.6,2.5,5.6,5.6S290.5,170,287.4,170z"/>
</g>
<g>
	<rect x="180.1" y="113.1" class="st1" width="74.8" height="51.9"/>
</g>
<g>
	<path class="st1" d="M214.8,65.5c1.5-1.5,3.9-1.5,5.4,0l22.3,22.9l18.7,19.2c2.3,2.4,0.6,6.4-2.7,6.4h-41h-41c-3.3,0-5-4-2.7-6.4
		l18.7-19.2L214.8,65.5z"/>
</g>
</svg>
